<?xml version="1.0" encoding="utf-8"?>
<!-- Generator: Adobe Illustrator 25.0.1, SVG Export Plug-In . SVG Version: 6.00 Build 0)  -->
<svg version="1.1" id="Layer_1" xmlns="http://www.w3.org/2000/svg" xmlns:xlink="http://www.w3.org/1999/xlink" x="0px" y="0px"
	 viewBox="0 0 216 108" style="enable-background:new 0 0 216 108;" xml:space="preserve">
<style type="text/css">
	.st0{fill:#009B5C;}
	.st1{fill:#FFFFFF;}
</style>
<g>
	<path class="st0" d="M190.2,55.6c-5.3,0.6-10.6,1.4-15.8,1.8c-9.2,0.8-18.4,1.3-27.6,2c-5.5,0.4-10.9,0.9-16.4,1.3
		c-0.3,0-0.6,0-0.8,0.1c-0.6,0.4-1.1,0.8-1.7,1.2c0.6,0.3,1.2,0.7,1.8,0.7c7.8,0.1,15.5,0,23.3,0c3.7,0,7.4,0,11,0
		c0.6,0,1.3,0.4,1.9,0.6c-0.6,0.4-1.1,1-1.8,1.1c-1.4,0.3-2.8,0.4-4.2,0.5c-17.6,0.5-35.3,0.9-52.9,1.3c-8.7,0.2-17.5,0.4-26.2,0.7
		c-9.3,0.3-18.7,0.3-27.9,1.9c-1.8,0.3-3.8,0.6-5.3-1.3c0.7-1.5,1.7-2.3,3.6-2.4c9.4-0.7,18.9-1.5,28.3-2.3
		c8.1-0.7,16.2-1.4,24.3-2.1c8.1-0.7,16.2-1.5,24.3-2.3c3.1-0.3,6.2-0.6,9.4-0.9c0.5-0.1,1.1-0.1,1.6-0.3c0.4-0.2,0.7-0.7,1-1
		c-0.4-0.2-0.8-0.7-1.2-0.7c-3.5,0-7.1,0.2-10.6,0.3c-6,0.2-12,0.5-18,0.7c-14.8,0.5-29.6,1-44.5,1.5c-10.3,0.3-20.6,0.6-30.8,0.9
		c-2.3,0.1-4.7,0.3-7,0.3c-0.7,0-1.5-0.4-2.2-0.6c0-0.1,0-0.3,0-0.4c4.7-0.5,9.4-1.2,14.1-1.4c15.2-0.7,30.4-1.2,45.6-1.6
		c14-0.4,27.9-0.6,41.9-1c1.6,0,3.1-0.3,4.7-0.4c13,0,25.9,0,38.9,0c0.8,0.1,1.5,0.3,2.3,0.4c4.8,0.1,9.7,0.1,14.5,0.2
		c0.8,0,1.6,0.4,2.4,0.7C190.2,55.4,190.2,55.5,190.2,55.6z"/>
	<path class="st1" d="M190.2,55.2c-0.8-0.2-1.6-0.6-2.4-0.7c-4.8-0.1-9.7-0.1-14.5-0.2c-0.8,0-1.5-0.2-2.3-0.4c6,0,12,0,18,0
		C190,54,190.4,54.2,190.2,55.2z"/>
</g>
</svg>
